<?xml version="1.0" encoding="UTF-8" standalone="no"?>
<svg version="1.1" xmlns="http://www.w3.org/2000/svg" xmlns:svg="http://www.w3.org/2000/svg" xml:space="preserve"
  width="250mm" height="250mm" viewBox="0 0 230 230">
  <g>
    <rect x="5" y="5" width="220" height="220" fill="white" rx="25" ry="25" stroke="gold" stroke-width="5" />  
  </g>
  <g transform="translate(20,20) scale(0.9)">
    <path style="fill: black; fill-rule: evenodd; stroke-width: 1"
      d="m 75.349395,208.74785 c -0.179855,0.33929 -0.245188,0.77319 -0.525807,1.02504 -0.280622,0.25185 -26.031234,-0.006 -26.031234,-0.006 -10.272025,-0.0946 -28.183641,0.38724 -28.897707,-0.12064 -0.714066,-0.50789 -0.573845,-1.53357 -0.836107,-2.43429 -1.5297,1.23959 -7.705034,-0.32068 -9.4135404,-2.64691 -12.1922076,-16.60058 -5.5955107,-26.79811 -4.7205464,-30.03311 -0.9622923,-0.003 -1.256492,-0.0113 -2.4843507,0.18108 -1.2278587,0.19235 -2.30699896,0.26897 -2.39808401,0.17029 -0.09111488,-0.0986 0.02359664,-0.79654 0.25481408,-1.55079 0.23121744,-0.75425 0.53297697,-2.6514 0.67056133,-4.21589 0.2695868,-3.06555 0.668172,-4.3865 1.9169404,-6.35302 0.4394331,-0.69199 0.6474009,-1.15668 0.4621572,-1.03264 -0.2242673,0.15017 -0.2963362,0.094 -0.2156813,-0.16817 0.066626,-0.21655 -0.1691919,-1.08081 -0.5240439,-1.92056 -1.1148824,-2.63848 -0.5472341,-5.71144 1.6014195,-8.66918 0.7636986,-1.05129 0.7849257,-1.15307 0.4897296,-2.34886 -0.876338,-3.54997 -0.070988,-6.03007 3.5102993,-10.81051 0.6664567,-0.88962 0.6707001,-0.92631 0.3614848,-3.12638 -0.267465,-1.90301 -0.25064,-2.48837 0.1158517,-4.03209 0.2358078,-0.99324 0.6501175,-2.14432 0.9206858,-2.55793 0.572665,-0.87544 0.571118,-1.55796 -0.00595,-2.74156 -0.9620098,-1.97224 -0.7698359,-5.26083 0.463772,-7.93604 l 0.645161,-1.39914 -0.7542502,-1.15882 c -1.3183383,-2.02551 -2.3447133,-4.2138 -3.1429941,-6.70107 -1.212392,-3.77755 -1.5052283,-5.92137 -1.4946693,-10.942262 0.00793,-3.810165 0.1082868,-4.962117 0.6184801,-7.105336 2.3237249,-9.761618 8.8247115,-16.585464 17.8657085,-18.752973 2.622332,-0.628678 9.445025,-0.873025 13.02787,-0.466571 5.14053,0.583155 9.366243,2.153421 11.853213,4.404615 1.261627,1.14202 1.128812,1.159024 4.276427,-0.547769 4.512056,-2.446685 8.008753,-5.758021 9.346217,-8.850793 0.664563,-1.536725 0.705015,-1.844955 0.589599,-4.492078 -0.324593,-7.444521 -0.262716,-7.976261 1.637043,-14.068615 1.819044,-5.833511 2.09103,-7.244826 2.546891,-13.216005 0.155143,-2.032137 0.406418,-5.101662 0.558378,-6.821163 1.082422,-12.247996 5.451511,-20.4244146 13.15674,-24.6218441 3.164995,-1.72413171 5.491208,-2.30607645 9.375265,-2.3453974 2.583716,-0.0261515 3.612787,0.0831469 4.85298,0.5154574 1.299422,0.4529627 2.39746,0.553403 6.295742,0.5758879 4.49876,0.025947 4.82592,0.066261 6.92564,0.8532274 6.11635,2.2923972 10.60433,7.8367538 12.5912,15.5548798 1.19058,4.624904 1.40928,7.267393 1.20694,14.583661 -0.31379,11.345812 -0.23111,12.482833 1.44483,19.871039 1.1759,5.183879 1.3377,7.948688 0.63408,10.835501 -0.571,2.342678 -0.51795,4.176709 0.16498,5.705202 0.76959,1.72243 1.85817,2.589988 4.61269,3.67611 4.6666,1.84008 10.51212,4.811654 14.52244,7.382485 2.12474,1.362091 3.79108,2.512754 4.24933,2.512754 0.50073,0 1.33959,0.457529 1.27162,-5.645646 -0.0662,-5.95022 0.26697,-8.211239 1.6879,-11.453033 2.16026,-4.928485 6.56068,-7.983181 13.43008,-9.322898 3.60671,-0.703409 13.11033,-0.708198 16.47974,-0.0086 5.75644,1.195712 8.7099,2.695821 11.82312,6.005127 4.56511,4.852653 6.69014,11.784507 6.31681,20.605479 -0.29551,6.98222 -2.00876,12.869137 -5.04633,17.339727 -1.10941,1.632781 -1.19833,1.883081 -1.04301,2.935521 0.41746,2.82854 2.08158,4.79379 5.19977,6.14073 4.54706,1.96419 6.08112,4.61214 6.01916,10.38978 -0.0607,5.66083 0.7123,8.63021 2.82131,10.838 l 1.12214,1.17469 -0.94663,0.3385 c -0.77531,0.27721 -1.20903,0.25583 -2.39655,-0.1182 -1.5592,-0.4911 -2.68113,-1.51919 -4.8514,-4.44563 -1.2323,-1.66167 -1.65344,-2.04174 -4.45948,-4.02456 -1.98834,-1.40499 -2.93888,-2.92342 -4.20069,-6.71022 -0.86031,-2.58186 -1.65053,-3.74739 -2.93008,-4.32162 -1.2649,-0.56767 -1.63871,0.10039 -1.74754,3.12343 -0.0683,1.89987 0.051,3.12947 0.48906,5.03497 0.31876,1.38668 0.68372,2.73586 0.81102,2.99816 0.1273,0.26232 0.9106,0.68902 1.74068,0.94824 2.73177,0.85303 5.43632,2.96972 7.80851,6.11124 1.01521,1.34443 2.09428,2.36767 3.48763,3.30715 2.52956,1.70557 4.0281,3.19068 5.35382,5.30584 2.25156,3.59226 3.45925,7.57145 3.76773,12.41422 0.20626,3.23795 -0.16568,6.23151 -1.21839,9.80656 -0.86296,2.93061 -1.87195,4.81792 -3.61258,6.75732 l -1.21914,1.35838 -0.002,11.99973 -0.002,11.99974 c -5.8e-4,3.47421 0.72959,15.22809 -2.3691,16.06836 -2.94747,0.54819 -4.64667,-0.17645 -14.68189,0.1196 l -19.69114,0.0904 -19.69112,0.0904 -0.32287,-3.00926 c -0.17756,-1.65511 -0.56723,-3.86728 -0.86591,-4.91597 -2.08133,-7.30761 -7.12099,-12.96625 -13.46897,-15.12322 l -1.98552,-0.67466 -2.41667,0.61369 c -3.67322,0.93277 -6.09943,1.19835 -10.94782,1.19835 -5.70163,0 -9.85816,-0.81288 -14.99792,-2.93309 -1.96707,-0.81144 -1.88512,-0.82063 -6.151183,0.68965 -2.849119,1.00864 -7.63268,3.56968 -10.92191,5.41811 -6.193768,3.9041 -6.588918,11.84517 -9.762852,17.83269 z m 72.772545,-19.61414 c -9.77533,-11.51359 -16.81306,-4.34223 -19.52625,-12.4745 -0.29961,-0.89799 2.33756,-5.09276 3.51306,-6.01534 8.35311,-6.55588 3.31297,-5.34527 2.89662,-5.26596 -0.58616,0.11166 -3.80765,3.44541 -6.07033,5.60324 -2.74598,2.61885 -3.49851,5.52719 -2.17484,8.40513 0.8913,1.93788 2.07301,3.17439 3.3762,3.53275 7.80532,2.14642 11.9322,4.4993 15.03321,9.2772 5.67074,8.73722 4.96951,12.81932 5.74245,17.40482 1.64101,-0.14535 0.78798,-0.12954 3.90044,-0.057 -1.27027,-6.02716 -4.76506,-18.14247 -6.69056,-20.41036 z m -51.420611,-6.74319 c 6.668691,-2.36619 8.478571,-3.3729 8.493071,-9.29553 0.007,-2.75317 -0.31488,-3.59056 -2.30885,-6.01133 -0.79617,-0.96658 -1.9035,-2.56529 -2.46076,-3.55268 -1.006505,-1.78344 -1.020375,-1.79467 -2.102748,-1.70388 -2.87079,0.2408 -5.244347,-2.74463 -6.06074,-7.6231 -0.735997,-4.398 1.535692,-11.43581 3.552978,-9.59033 l 0.312937,0.28628 0.403037,-5.85892 c 0.24824,-3.60867 0.243987,-4.66969 0.819883,-6.57949 1.947716,-6.45897 6.458953,-11.64657 12.190123,-14.01773 7.06228,-2.9219 14.42862,-2.46259 19.97704,1.24562 5.90793,3.94849 10.00238,10.11478 11.43515,17.2215 0.52771,2.61748 0.54975,8.51668 0.041,10.96568 -0.35654,1.71622 -0.28529,2.69235 -0.0664,2.43212 0.71687,-0.85217 2.15582,-0.24704 2.43695,1.21479 0.32992,1.71546 0.33121,2.79523 0.61183,2.45548 0.34344,-0.41576 0.53627,-4.05972 0.16797,-7.79733 -0.41007,-4.16142 0.29805,-9.01039 -1.48919,-13.66521 -3.09759,-8.06756 -8.88759,-14.54576 -14.87982,-17.24853 -5.45738,-2.46152 -10.50976,-2.34732 -15.62699,-0.71385 l -3.16338,1.00977 0.18257,-6.47244 c 0.0564,-1.9987 0.35175,-6.18825 0.55849,-9.314617 0.46371,-7.011847 0.46385,-6.867543 -0.007,-7.063192 -0.22252,-0.09244 -1.47565,0.624029 -2.95115,1.687464 -2.82412,2.035417 -7.59215,4.658541 -9.667931,5.318797 -1.226025,0.389968 -1.442866,0.381688 -2.715222,-0.103745 -4.698221,-1.792608 -11.27906,-6.152748 -15.334868,-10.160132 -2.773707,-2.740591 -3.3953,-2.981516 -3.17601,-1.230989 0.168914,1.348369 0.795515,8.502468 1.310516,14.962424 0.224307,2.81373 0.870548,10.74334 1.436074,17.62134 1.534466,18.66218 2.046455,27.89175 2.671666,48.16204 l 0.324524,10.52142 3.423745,1.82311 c 1.883053,1.0027 3.050835,1.27546 3.772217,1.82222 2.776164,2.10413 6.11576,-0.59327 7.889308,-0.74701 z M 191.4122,170.82014 c 10.87009,-1.64266 14.46757,-5.15297 15.79184,-15.40927 0.24168,-1.87181 0.23939,-3.07235 -0.0103,-5.39971 -0.74476,-6.94164 -3.43129,-12.17721 -7.24279,-14.11483 -2.70105,-1.37312 -4.6168,-1.70619 -9.88285,-1.71827 -4.57423,-0.0108 -4.94785,0.0283 -5.63994,0.5853 -0.49402,0.39758 -0.7692,0.90359 -0.82513,1.51723 -0.0695,0.7633 0.0956,1.10571 0.96611,2.00294 1.21689,1.2542 3.06492,1.99522 7.03505,2.82093 1.46892,0.3055 2.98986,0.73657 3.37985,0.95799 0.68649,0.38969 0.63063,0.41791 -1.75264,0.8851 -6.01649,1.17942 -14.17852,3.59746 -16.62715,4.92589 -2.17654,1.18079 -2.81598,2.8791 -1.58587,4.21186 0.91672,0.99323 1.42406,0.99054 8.6244,-0.0457 2.71698,-0.39102 5.25495,-0.67147 5.63994,-0.62319 0.38499,0.0483 -2.13988,0.69875 -5.6108,1.4455 -3.47092,0.74674 -6.743,1.48704 -7.27131,1.64507 -1.12263,0.33585 -2.4504,1.46469 -2.69171,2.28846 -0.27033,0.92278 0.36448,2.15557 1.37842,2.67688 0.86377,0.44409 1.28543,0.44541 6.20596,0.0195 2.90357,-0.25132 6.63674,-0.51604 8.29594,-0.58827 l 3.01671,-0.13133 -1.96743,0.3782 c -1.08208,0.208 -3.79712,0.6588 -6.03341,1.00174 -5.93002,0.90939 -6.80563,1.15562 -7.44699,2.09401 -0.50126,0.7334 -0.51247,0.8538 -0.14546,1.56316 0.21869,0.42272 0.68962,0.92071 1.0465,1.10665 1.01349,0.52805 3.80577,0.93349 6.6771,0.96953 l 5.47409,-0.4818 -5.43849,0.92008 c -1.42077,0.24036 -2.98914,0.58706 -3.47991,0.80922 -1.43113,0.64788 -1.69085,2.30325 -0.49461,3.15249 1.34086,0.95188 6.22593,1.19797 10.61489,0.53473 z M 63.521681,167.95801 c 0.316026,-0.13138 0.414984,-0.5887 0.415143,-1.91843 2.56e-4,-2.17691 0.96308,-4.53472 2.73392,-6.69497 1.992528,-2.43073 2.927848,-4.18848 4.612471,-8.6682 2.071746,-5.50921 2.542261,-7.32211 2.145312,-8.26601 -0.382692,-0.91001 -1.121049,-0.98394 -1.520556,0.007 -3.004607,7.45264 -0.670482,0.7613 -0.223217,-0.8489 0.536972,-1.93312 0.56556,-3.68172 0.168556,-4.69679 -0.704972,-1.80248 -1.97295,-0.41346 -2.269303,0.32986 -0.362575,0.90939 -4.240087,11.70516 -0.21925,-0.97768 0.487546,-1.53786 0.08002,-2.01366 -0.315312,-2.48687 -0.259782,-0.31102 -0.668045,-0.56549 -0.907243,-0.56549 -0.660646,0 -1.804201,1.45154 -2.372047,3.01089 0,0 -0.937283,2.91746 -2.21106,5.39628 0.210977,-0.86928 2.988663,-9.08418 1.086699,-8.69137 -1.405956,0.29037 -2.702233,1.88109 -4.925792,7.31553 l -1.555615,4.81811 -0.0041,-2.73397 c -0.0023,-1.5191 -0.8204,-2.57851 -1.625809,-2.57851 -0.60464,0 -1.575959,2.19588 -2.828685,6.39484 -0.690191,2.31344 -0.871389,3.45018 -0.974045,6.11063 -0.129712,3.36148 0.429529,8.52582 1.004554,9.27649 0.151801,0.19818 0.944877,0.56943 1.762382,0.825 2.273061,0.71061 3.733069,1.69547 5.704748,3.84819 0.990543,1.08149 1.824011,1.96636 1.852148,1.96636 0.02817,0 0.23789,-0.0777 0.466104,-0.17253 z M 40.129845,136.91154 c -0.194524,-5.19637 0.652755,-9.47551 2.034834,-10.27691 0.317435,-0.18406 2.02838,-0.27269 4.391188,-0.22748 3.664748,0.0702 3.941038,0.0365 5.18237,-0.63056 1.868607,-1.00417 2.49244,-2.14505 2.49244,-4.55828 0,-1.2767 0.187634,-2.45345 0.558755,-3.50415 0.526077,-1.48946 0.533393,-1.6239 0.125113,-2.29901 -0.238505,-0.39438 -0.539888,-0.71705 -0.66974,-0.71705 -0.12985,0 0.102915,-0.3673 0.517264,-0.81623 1.051448,-1.13921 1.16852,-1.94485 0.542146,-3.73088 l -0.53379,-1.52207 1.172904,-1.35858 c 0.940643,-1.08954 1.172901,-1.56165 1.172901,-2.38418 0,-1.41722 -0.296325,-1.90153 -2.066361,-3.37721 C 52.767825,99.60641 52.393887,98.551333 52.124012,93.253482 51.821172,87.30845 50.94992,84.726857 48.219907,81.685287 47.095972,80.433108 46.59268,80.054538 46.24438,80.19934 c -0.385159,0.160134 -0.442951,0.424254 -0.328568,1.501584 0.194297,1.829995 -0.252097,5.726273 -0.891735,7.783462 -0.859106,2.763018 -2.500997,5.195422 -5.657624,8.381557 -1.590276,1.605146 -3.037158,3.213507 -3.215293,3.574147 -0.320605,0.64905 -0.340276,0.63801 -1.942994,-1.0907 -1.904518,-2.054199 -3.338024,-2.668801 -5.05123,-2.165639 -2.719326,0.798652 -4.021534,4.003249 -3.140625,7.728739 0.534146,2.25895 1.294304,3.67433 3.017476,5.61836 1.567532,1.76845 1.576137,1.72314 -0.812637,4.27749 -1.589215,1.69938 -3.165808,2.94999 -5.06879,4.02078 l -1.304685,0.73412 -0.007,3.67543 c -0.007,3.44759 -0.05146,3.76714 -0.724635,5.1547 -0.394739,0.8136 -0.650108,1.67014 -0.56748,1.90342 0.08735,0.24665 0.771898,0.5544 1.635833,0.7354 4.203447,0.88072 9.912597,3.57407 14.969279,7.06192 1.356363,0.93554 2.611308,1.64062 2.788778,1.56683 0.241955,-0.10049 0.288811,-1.03841 0.187326,-3.7494 z m 5.968832,-35.5494 c 0,-0.2796 1.938326,-2.170452 2.664736,-2.599485 0.377081,-0.222698 0.446937,-0.04918 0.524649,1.302695 l 0.08964,1.55961 -1.639521,-3.8e-4 c -0.90173,-2.1e-4 -1.639512,-0.11831 -1.639512,-0.26244 z m 128.669293,27.41838 c 1.15422,-0.42026 2.80686,-1.13124 3.67252,-1.57997 2.24031,-1.16134 6.32768,-3.58355 6.32768,-4.05465 0,-0.21853 -0.0978,-0.91953 -0.4121,-1.96567 -0.69526,-2.31411 -1.69947,-7.13476 -1.18195,-10.87389 0.17202,-1.24275 0.13145,-1.35686 -0.92316,-2.59646 -1.0584,-1.24405 -2.14989,-3.4163 -2.50097,-4.97733 -0.14673,-0.65237 -0.0113,-0.8467 1.15416,-1.65705 4.73907,-3.294824 6.33352,-8.548629 3.66064,-12.061914 -1.04051,-1.367652 -2.06776,-1.914714 -3.61983,-1.927747 -2.52769,-0.02131 -4.65766,1.611434 -6.07724,4.658274 -0.76191,1.635291 -0.82418,1.694063 -1.61395,1.522918 -1.71846,-0.372364 -3.00388,-2.649096 -3.84026,-6.801849 -0.27821,-1.381311 -0.54478,-2.540098 -0.59239,-2.575075 -0.0476,-0.03498 -0.69621,-0.477838 -1.44134,-0.984152 -1.84988,-1.257012 -5.03608,-4.936558 -6.33421,-7.314997 -1.85468,-3.398132 -2.81192,-6.473 -3.32362,-10.676209 -0.0888,-0.728652 -0.32141,-1.391392 -0.51709,-1.472752 -0.45161,-0.187765 -2.57041,2.060406 -3.73999,3.968317 -1.68209,2.744024 -2.22636,5.065031 -2.42465,10.33993 -0.2321,6.173742 -0.39372,6.582445 -3.99759,10.109915 -1.88057,1.840671 -1.90884,3.642804 -0.0894,5.700067 l 1.09129,1.233991 -0.86652,0.90995 c -1.39005,1.459724 -1.46271,3.126288 -0.2068,4.743393 l 0.62894,0.80983 -0.63983,0.31584 c -0.83578,0.41259 -1.04875,1.43409 -0.69589,3.33776 0.19888,1.07298 0.20522,2.01897 0.0206,3.10011 -0.50812,2.97813 0.54263,5.05703 3.11403,6.16105 2.78133,1.19413 9.94856,0.74604 14.35813,-0.89769 0.83711,-0.31204 1.5652,-0.52056 1.61797,-0.46338 0.0527,0.0572 -0.74834,0.84307 -1.78026,1.74641 l -1.87623,1.64242 0.16766,1.45177 c 0.4227,3.66011 0.47162,5.93097 0.1751,8.12815 -0.3798,2.81425 -0.32206,2.91894 1.95195,3.53978 1.13765,0.31059 2.55372,0.40119 5.11458,0.32724 2.98733,-0.0863 3.86966,-0.22181 5.63994,-0.86633 z M 156.85013,89.365402 c -1.70352,-0.913587 -2.6745,-2.09252 -2.6745,-3.247303 0,-0.808658 0.1137,-0.998392 0.69265,-1.155817 1.04738,-0.284812 1.95883,0.19944 2.79158,1.483173 0.85163,1.31283 1.27968,3.526121 0.6819,3.525755 -0.19935,-1.29e-4 -0.87059,-0.272737 -1.49163,-0.605808 z m -57.419383,4.710513 c 1.182053,-0.560479 2.916483,-1.476046 3.854273,-2.034578 1.93156,-1.150382 6.58977,-4.552323 6.88196,-5.025953 0.10601,-0.171826 0.19453,-3.078484 0.19674,-6.459257 0.003,-5.120874 -0.0617,-6.205898 -0.38947,-6.500657 -0.31515,-0.28338 -0.39348,-0.280884 -0.39348,0.01259 0,0.201507 -0.0755,0.284503 -0.16794,0.184417 -0.0925,-0.100084 -0.40015,0.294275 -0.68394,0.876329 -1.91255,3.922562 -4.49059,5.203957 -9.221007,4.58321 C 92.223785,78.756181 84.563509,73.986552 80.567,67.91858 c -1.359178,-2.063679 -2.747484,-5.039816 -3.395658,-7.279366 -0.258097,-0.891775 -0.56743,-1.555694 -0.687417,-1.475346 -0.119975,0.08039 -0.21814,0.0032 -0.21814,-0.171696 0,-0.174763 -0.102535,-0.249096 -0.227855,-0.165175 -0.405446,0.271482 -0.577365,3.832708 -0.580825,12.031172 l -0.003,8.029125 0.855826,1.349919 c 1.459829,2.302687 5.209554,6.314031 8.04275,8.603904 4.259562,3.442707 10.482148,6.70338 12.192904,6.389142 0.405011,-0.07436 1.703501,-0.593831 2.885555,-1.15432 z M 105.92711,62.54183 c 1.47447,-0.54495 3.76196,-2.402603 3.85867,-3.133595 0.0528,-0.39932 -0.26025,-0.77588 -1.09995,-1.323014 -3.65389,-2.380808 -8.32235,-2.512588 -12.268048,-0.346307 -0.695615,0.381918 -1.26476,0.819327 -1.26476,0.972036 0,0.655249 3.789047,3.133961 5.902248,3.86111 1.44163,0.496059 3.48211,0.483403 4.87184,-0.03024 z M 94.366054,53.527569 c 2.655654,-1.404098 4.89347,-1.800635 7.846306,-1.390346 3.85376,0.53547 4.86625,0.446895 5.85592,-0.512291 0.77949,-0.755485 0.85286,-0.966746 0.81416,-2.344776 -0.0233,-0.832964 -0.35367,-2.857398 -0.73396,-4.49874 -1.80025,-7.769833 -0.9935,-10.073444 3.53088,-10.082131 1.60073,-0.0031 2.25445,0.141543 3.50747,0.77595 1.63158,0.826061 2.13474,0.959383 1.87014,0.495511 -0.0891,-0.156318 -0.0533,-0.284214 0.0795,-0.284214 0.25391,0 0.97531,-10.158799 0.80572,-11.346209 -0.0733,-0.513569 -0.50822,-0.914591 -1.7142,-1.580781 -2.46546,-1.361945 -4.36395,-3.020266 -8.02932,-7.013643 -1.84222,-2.007073 -3.4464,-3.649224 -3.56484,-3.649224 -0.11843,0 -0.34045,0.297538 -0.49339,0.661197 -0.49575,1.178851 -3.93973,5.413917 -5.500409,6.763854 -4.623426,3.999117 -9.648175,6.574511 -15.422721,7.904781 -1.2985,0.299132 -2.242862,0.555361 -2.098585,0.569399 0.169162,0.01645 0.166386,0.09969 -0.0079,0.23433 -0.265273,0.205063 -1.930305,6.230953 -2.491282,9.016174 -0.157055,0.779775 -0.282614,2.582432 -0.279025,4.005904 0.0079,3.325838 0.839515,6.264225 2.620042,9.262946 1.374357,2.314661 4.737197,6.330634 6.407403,7.65187 l 1.002877,0.793336 2.013836,-2.19634 c 1.490742,-1.625842 2.524861,-2.466527 3.981251,-3.236557 z M 88.385096,38.756055 c -0.551299,-0.597312 -0.341845,-1.411579 0.614494,-2.388793 1.262659,-1.290223 3.756012,-2.101807 6.457185,-2.101807 2.152242,0 5.729675,0.712492 5.729675,1.14114 0,0.133613 -0.1173,0.577187 -0.26065,0.985719 -0.37762,1.076085 -1.706828,1.567166 -4.255999,1.572392 -1.194923,0.0025 -3.282424,0.258243 -4.638884,0.56843 -2.879406,0.658443 -3.224373,0.679535 -3.645821,0.222919 z M 114.90121,53.80525 c 1.89554,-5.678717 2.32096,-7.561602 2.47219,-10.941852 l 0.14305,-3.196987 -1.01672,-0.47583 c -0.65655,-0.307277 -1.77581,-0.483618 -3.1597,-0.49781 -3.72211,-0.03817 -4.24995,0.939248 -3.26488,6.045705 0.88231,4.573671 0.89882,4.918418 0.32341,6.750461 l -0.52665,1.676821 1.61753,1.776356 c 0.88965,0.976986 1.80244,1.776337 2.02843,1.776337 0.28304,0 0.71356,-0.906659 1.38334,-2.913201 z M 5.5830499,179.41474 c 1.0243198,-2.09999 5.3309631,-11.72225 8.1870891,-8.68813 1.184487,1.71013 1.371859,2.6546 -0.162149,6.60718 -0.479003,1.23423 -1.699654,4.96721 -1.773573,5.29581 -0.604133,2.68527 7.454142,-9.91397 11.245675,-13.71998 3.880274,-3.89507 7.011529,-2.18885 4.286943,3.34388 -1.219882,2.47716 -5.219665,8.1581 -6.19161,10.48857 -0.261001,0.62604 5.252247,-5.8256 7.532195,-10.43584 2.27995,-4.61024 5.999712,-1.5161 4.241075,3.05778 -1.063693,2.76645 -2.791649,6.80597 -6.931963,11.64336 2.205763,-1.28683 5.637898,-5.55819 6.425035,-7.71148 2.561036,-7.006 6.65065,-1.30952 3.672171,3.92507 -1.685244,2.96177 -3.587524,6.37802 -6.306833,8.22628 2.124682,-0.78189 5.44727,-4.34299 7.156147,-6.90671 2.163243,-3.24538 4.351291,-0.0718 2.638487,3.38949 -1.712805,3.46136 -4.559145,5.30366 -8.237067,9.86168 -3.677921,4.55801 -6.631943,6.38879 -14.406733,7.19874 -7.7747886,0.80993 -15.2755108,-17.57891 -11.3748891,-25.5757 z" />
  </g>
</svg>
